HIERARCHY
ROOT Hips
{
	OFFSET 0.000000 0.000000 0.000000
	CHANNELS 6 Xposition Yposition Zposition Xrotation Yrotation Zrotation
	JOINT LeftUpLeg_virtual
	{
		OFFSET 0.000000 0.000000 0.000000
		CHANNELS 3 Xrotation Yrotation Zrotation
		JOINT LeftUpLeg
		{
			OFFSET 13.026900 -6.336304 -1.092800
			CHANNELS 3 Xrotation Yrotation Zrotation
			JOINT LeftLeg
			{
				OFFSET 0.524474 -46.096886 9.782700
				CHANNELS 3 Xrotation Yrotation Zrotation
				JOINT LeftFoot
				{
					OFFSET -0.524474 -53.427422 -12.948200
					CHANNELS 3 Xrotation Yrotation Zrotation
					JOINT LeftToeBase
					{
						OFFSET 0.192200 -14.009700 16.364100
						CHANNELS 3 Xrotation Yrotation Zrotation
						JOINT LeftToe_End
						{
							OFFSET -1.784700 -0.561700 9.474800
							CHANNELS 3 Xrotation Yrotation Zrotation
							End Site
							{
								OFFSET 0 0 0
							}
						}
					}
				}
			}
		}
	}
	JOINT RightUpLeg_virtual
	{
		OFFSET 0.000000 0.000000 0.000000
		CHANNELS 3 Xrotation Yrotation Zrotation
		JOINT RightUpLeg
		{
			OFFSET -12.883000 -6.336304 -1.092800
			CHANNELS 3 Xrotation Yrotation Zrotation
			JOINT RightLeg
			{
				OFFSET -0.524587 -46.096825 9.782800
				CHANNELS 3 Xrotation Yrotation Zrotation
				JOINT RightFoot
				{
					OFFSET 0.524587 -53.427383 -12.948300
					CHANNELS 3 Xrotation Yrotation Zrotation
					JOINT RightToeBase
					{
						OFFSET -0.192200 -14.009700 16.364100
						CHANNELS 3 Xrotation Yrotation Zrotation
						JOINT RightToe_End
						{
							OFFSET 1.784700 -0.561700 9.474800
							CHANNELS 3 Xrotation Yrotation Zrotation
							End Site
							{
								OFFSET 0 0 0
							}
						}
					}
				}
			}
		}
	}
	JOINT Spine_virtual
	{
		OFFSET 0.000000 0.000000 0.000000
		CHANNELS 3 Xrotation Yrotation Zrotation
		JOINT Spine
		{
			OFFSET 0.072000 7.257294 -0.789700
			CHANNELS 3 Xrotation Yrotation Zrotation
			JOINT Spine1
			{
				OFFSET 0.000000 12.508769 -0.658067
				CHANNELS 3 Xrotation Yrotation Zrotation
				JOINT Spine1_split
				{
					OFFSET 0.000000 12.508769 -0.658067
					CHANNELS 3 Xrotation Yrotation Zrotation
					JOINT Spine2
					{
						OFFSET 0.000000 12.508769 -0.658067
						CHANNELS 3 Xrotation Yrotation Zrotation
						JOINT Neck_virtual
						{
							OFFSET 0.000000 0.000000 0.000000
							CHANNELS 3 Xrotation Yrotation Zrotation
							JOINT Neck
							{
								OFFSET 0.000000 14.033295 7.520400
								CHANNELS 3 Xrotation Yrotation Zrotation
								JOINT Head
								{
									OFFSET 0.000000 8.198502 5.703100
									CHANNELS 3 Xrotation Yrotation Zrotation
									JOINT HeadTop_End
									{
										OFFSET 0.000000 17.760803 13.332701
										CHANNELS 3 Xrotation Yrotation Zrotation
										End Site
										{
											OFFSET 0 0 0
										}
									}
								}
							}
						}
						JOINT LeftShoulder_virtual
						{
							OFFSET 0.000000 0.000000 0.000000
							CHANNELS 3 Xrotation Yrotation Zrotation
							JOINT LeftShoulder
							{
								OFFSET 6.292450 5.785301 -0.669000
								CHANNELS 3 Xrotation Yrotation Zrotation
								JOINT LeftShoulder_split
								{
									OFFSET 6.292450 5.785301 -0.669000
									CHANNELS 3 Xrotation Yrotation Zrotation
									JOINT LeftArm
									{
										OFFSET 13.907140 -6.093903 1.965100
										CHANNELS 3 Xrotation Yrotation Zrotation
										JOINT LeftForeArm
										{
											OFFSET 34.140198 0.000000 0.000000
											CHANNELS 3 Xrotation Yrotation Zrotation
											JOINT LeftHand
											{
												OFFSET 40.960209 0.000000 0.000000
												CHANNELS 3 Xrotation Yrotation Zrotation
												End Site
												{
													OFFSET 0 0 0
												}
											}
										}
									}
								}
							}
						}
						JOINT RightShoulder_virtual
						{
							OFFSET 0.000000 0.000000 0.000000
							CHANNELS 3 Xrotation Yrotation Zrotation
							JOINT RightShoulder
							{
								OFFSET -6.292450 5.785301 -0.669000
								CHANNELS 3 Xrotation Yrotation Zrotation
								JOINT RightShoulder_split
								{
									OFFSET -6.292450 5.785301 -0.669000
									CHANNELS 3 Xrotation Yrotation Zrotation
									JOINT RightArm
									{
										OFFSET -13.907140 -6.093903 1.965100
										CHANNELS 3 Xrotation Yrotation Zrotation
										JOINT RightForeArm
										{
											OFFSET -34.140198 0.000000 0.000000
											CHANNELS 3 Xrotation Yrotation Zrotation
											JOINT RightHand
											{
												OFFSET -40.960209 0.000000 0.000000
												CHANNELS 3 Xrotation Yrotation Zrotation
												End Site
												{
													OFFSET 0 0 0
												}
											}
										}
									}
								}
							}
						}
					}
				}
			}
		}
	}
}
MOTION
Frames: 10
Frame Time: 0.03333333
4.128864 92.203163 19.069447 0.000000 0.000000 0.000000 0.242162 -30.581509 -3.469617 -48.353494 -1.396332 22.262184 64.558067 1.033607 0.338547 -16.528790 -7.869287 -12.342361 0.025314 0.000004 -0.028748 0.000000 0.000000 0.000000 0.242162 -30.581509 -3.469617 -15.116358 -13.908329 -30.708978 50.051507 -4.502040 -7.041207 -8.618586 -8.488738 23.453498 -11.945756 -0.123413 2.669215 0.000000 0.000000 0.000000 0.242162 -30.581509 -3.469617 11.843841 9.891010 -4.622174 2.723682 1.552885 -1.611383 0.000000 0.000000 0.000000 0.000000 0.000000 0.000000 2.746773 1.530468 -1.591251 -10.034642 9.444444 7.085844 -0.518329 7.859692 -1.080338 0.000000 0.000000 0.000000 2.746773 1.530468 -1.591251 0.920481 1.300385 -6.093181 0.000000 0.000000 0.000000 -59.606392 1.454192 -47.058777 179.999950 -70.850208 179.999937 0.000000 0.000000 0.000000 2.746773 1.530468 -1.591251 2.590447 21.406218 -4.318642 0.000000 0.000000 0.000000 -39.313476 17.241004 46.560406 -179.999991 66.687536 179.999978 0.000000 0.000000 0.000000 
4.033683 91.636223 16.720688 0.000000 0.000000 0.000000 -0.918884 -33.888339 -3.151022 -47.507012 -1.185090 24.066730 64.517229 1.963107 -0.582377 -15.578656 -7.515045 -13.122317 0.021439 0.000010 -0.024473 0.000000 0.000000 0.000000 -0.918884 -33.888339 -3.151022 -16.451843 -12.673737 -31.057369 51.871752 -5.286560 -6.515860 -11.260743 -12.963323 25.613378 -8.339156 0.000013 0.018724 0.000000 0.000000 0.000000 -0.918884 -33.888339 -3.151022 11.906757 9.389144 -4.314414 2.734731 1.427247 -1.530578 0.000000 0.000000 0.000000 0.000000 0.000000 0.000000 2.757623 1.406165 -1.509498 -9.369962 10.141565 6.579432 0.350804 10.288568 -2.099689 0.000000 0.000000 0.000000 2.757623 1.406165 -1.509498 0.848222 1.234088 -5.801386 0.000000 0.000000 0.000000 -60.427380 2.491308 -46.713067 179.999909 -71.598974 179.999909 0.000000 0.000000 0.000000 2.757623 1.406165 -1.509498 2.551274 20.915496 -4.132411 0.000000 0.000000 0.000000 -41.238336 18.236696 50.341424 -179.999991 67.992266 -179.999978 0.000000 0.000000 0.000000 
3.760670 91.173752 14.083710 0.000000 0.000000 0.000000 -1.813246 -36.455578 -2.558673 -46.973841 -0.903876 25.478223 63.998654 2.644138 -1.331339 -14.115358 -7.344029 -13.674285 0.006932 -0.000001 -0.007954 0.000000 0.000000 0.000000 -1.813246 -36.455578 -2.558673 -17.841103 -11.567067 -31.114319 53.241034 -6.216429 -6.531295 -15.161451 -15.180464 26.259694 -4.740269 -0.000004 -0.000007 0.000000 0.000000 0.000000 -1.813246 -36.455578 -2.558673 11.909785 8.853898 -4.092729 2.726341 1.293480 -1.468238 0.000000 0.000000 0.000000 0.000000 0.000000 0.000000 2.748196 1.274535 -1.446133 -8.423900 10.713526 6.026261 1.040677 12.357930 -3.142188 0.000000 0.000000 0.000000 2.748196 1.274535 -1.446133 0.723369 1.519091 -5.655420 0.000000 0.000000 0.000000 -60.780173 3.446325 -46.778439 -179.999923 -72.457857 -179.999923 0.000000 0.000000 0.000000 2.748196 1.274535 -1.446133 2.511054 20.376138 -3.971666 0.000000 0.000000 0.000000 -43.426985 19.111105 54.090594 179.999909 69.116037 -179.999909 0.000000 0.000000 0.000000 
3.321779 90.959419 11.237309 0.000000 0.000000 0.000000 -2.554448 -38.175266 -2.005201 -46.596179 -0.670922 26.571169 62.861516 3.153338 -1.829143 -12.137324 -7.368679 -13.960919 0.001576 0.000002 -0.002044 0.000000 0.000000 0.000000 -2.554448 -38.175266 -2.005201 -19.730533 -10.760195 -32.106537 54.803211 -6.924837 -6.093343 -18.346976 -13.320991 25.988873 -2.208890 -0.000003 -0.000003 0.000000 0.000000 0.000000 -2.554448 -38.175266 -2.005201 11.935047 8.240790 -3.571852 2.728190 1.133294 -1.333674 0.000000 0.000000 0.000000 0.000000 0.000000 0.000000 2.749305 1.117035 -1.311337 -7.266782 11.252494 5.152419 1.756666 14.205053 -4.256215 0.000000 0.000000 0.000000 2.749305 1.117035 -1.311337 0.720752 1.794962 -5.890582 0.000000 0.000000 0.000000 -60.570118 4.436042 -47.102200 -179.999718 -72.916627 -179.999718 0.000000 0.000000 0.000000 2.749305 1.117035 -1.311337 2.524399 19.980617 -4.230783 0.000000 0.000000 0.000000 -45.510657 19.661236 57.563257 -179.999991 69.969558 179.999991 0.000000 0.000000 0.000000 
2.823430 91.219994 8.488964 0.000000 0.000000 0.000000 -3.267070 -38.696259 -1.893817 -46.299892 -0.591730 27.389363 61.013738 3.515596 -2.014816 -9.133510 -7.684614 -14.396550 -0.761878 -0.000000 0.000001 0.000000 0.000000 0.000000 -3.267070 -38.696259 -1.893817 -20.950559 -10.808831 -32.779174 55.757426 -7.732035 -5.497430 -20.020032 -10.873436 25.966486 -1.575217 0.000025 0.000009 0.000000 0.000000 0.000000 -3.267070 -38.696259 -1.893817 12.036620 7.513011 -2.312093 2.762015 0.931094 -1.042184 0.000000 0.000000 0.000000 0.000000 0.000000 0.000000 2.782713 0.919982 -1.020691 -6.045162 11.748952 3.746931 2.774258 15.507318 -5.323397 0.000000 0.000000 0.000000 2.782713 0.919982 -1.020691 0.887033 1.821086 -6.441182 0.000000 0.000000 0.000000 -59.658178 5.673435 -47.725178 -179.999923 -72.907946 -179.999923 0.000000 0.000000 0.000000 2.782713 0.919982 -1.020691 2.555749 19.403000 -5.121960 0.000000 0.000000 0.000000 -47.064399 20.020572 60.797781 -179.999978 70.550479 180.000005 0.000000 0.000000 0.000000 
2.271575 91.776146 5.899910 0.000000 0.000000 0.000000 -3.742239 -38.409681 -1.716826 -46.247849 -0.578965 27.694795 58.739709 3.538080 -1.992025 -5.194191 -8.257204 -14.726726 -1.624536 0.000309 -0.142843 0.000000 0.000000 0.000000 -3.742239 -38.409681 -1.716826 -21.515487 -11.084809 -32.931573 56.302595 -8.403347 -4.802321 -20.869549 -9.544132 25.999520 -1.765639 -0.000011 -0.000004 0.000000 0.000000 0.000000 -3.742239 -38.409681 -1.716826 11.978192 6.926731 -0.959851 2.757951 0.759650 -0.733175 0.000000 0.000000 0.000000 0.000000 0.000000 0.000000 2.778166 0.754785 -0.712768 -4.659176 12.057651 2.444886 3.960364 16.246877 -6.250597 0.000000 0.000000 0.000000 2.778166 0.754785 -0.712768 1.131835 1.689423 -7.109515 0.000000 0.000000 0.000000 -58.423683 6.433926 -48.646188 -179.999855 -73.053695 -179.999855 0.000000 0.000000 0.000000 2.778166 0.754785 -0.712768 2.548404 18.665602 -5.977054 0.000000 0.000000 0.000000 -47.962531 20.529537 63.341569 -179.999909 71.123573 179.999950 0.000000 0.000000 0.000000 
1.682965 92.317993 3.468769 0.000000 0.000000 0.000000 -3.773548 -38.361173 -0.916806 -46.879331 -0.648648 27.545019 57.431256 3.318561 -1.865302 -1.268787 -8.996712 -14.396244 -0.812754 0.004540 -0.551929 0.000000 0.000000 0.000000 -3.773548 -38.361173 -0.916806 -22.416758 -10.894215 -33.029613 56.865430 -8.487680 -4.321687 -21.547177 -9.020755 26.004641 -1.214056 -0.000034 0.000000 0.000000 0.000000 0.000000 -3.773548 -38.361173 -0.916806 11.619994 6.789419 -0.413072 2.672644 0.709729 -0.605413 0.000000 0.000000 0.000000 0.000000 0.000000 0.000000 2.692388 0.707506 -0.585588 -3.257639 12.167577 1.869598 5.130538 16.651776 -6.825730 0.000000 0.000000 0.000000 2.692388 0.707506 -0.585588 1.245597 1.868593 -7.630062 0.000000 0.000000 0.000000 -57.238262 6.130695 -49.787059 -179.999964 -73.687154 -179.999950 0.000000 0.000000 0.000000 2.692388 0.707506 -0.585588 2.536902 18.208793 -6.200678 0.000000 0.000000 0.000000 -48.492666 21.272759 64.876265 -179.999909 71.700047 179.999909 0.000000 0.000000 0.000000 
1.186989 92.886299 1.306492 0.000000 0.000000 0.000000 -3.666913 -38.792640 -0.002586 -47.824534 -0.885843 27.233868 57.558339 3.235606 -1.717275 0.887469 -9.665577 -13.043750 0.336949 0.000009 -0.000003 0.000000 0.000000 0.000000 -3.666913 -38.792640 -0.002586 -23.505193 -10.215636 -32.636266 57.403683 -8.303978 -4.202980 -21.969181 -9.169546 25.426125 -0.468947 -0.000054 -0.000003 0.000000 0.000000 0.000000 -3.666913 -38.792640 -0.002586 11.355620 6.888235 -0.339980 2.607166 0.729416 -0.590863 0.000000 0.000000 0.000000 0.000000 0.000000 0.000000 2.626509 0.727287 -0.571715 -2.358619 12.241041 1.830083 5.995584 17.149282 -7.411931 0.000000 0.000000 0.000000 2.626509 0.727287 -0.571715 1.196642 2.329912 -7.867797 0.000000 0.000000 0.000000 -56.250771 5.663628 -50.710828 -179.999991 -74.055875 179.999991 0.000000 0.000000 0.000000 2.626509 0.727287 -0.571715 2.539125 17.927133 -6.190453 0.000000 0.000000 0.000000 -49.185831 22.232476 66.096642 179.999827 72.107338 -179.999855 0.000000 0.000000 0.000000 
0.801724 93.563210 -0.523281 0.000000 0.000000 0.000000 -3.808519 -39.062204 0.555129 -48.187893 -0.014420 25.093377 57.381054 0.350935 0.502534 0.677125 -9.487011 -12.005862 0.211366 0.000000 0.000001 0.000000 0.000000 0.000000 -3.808519 -39.062204 0.555129 -23.800993 -9.539309 -31.817371 57.442833 -7.940313 -4.094391 -21.975241 -10.054105 25.046852 -0.160818 -0.000005 0.000002 0.000000 0.000000 0.000000 -3.808519 -39.062204 0.555129 11.350060 6.820758 -0.223213 2.608038 0.715468 -0.572461 0.000000 0.000000 0.000000 0.000000 0.000000 0.000000 2.627336 0.713984 -0.553828 -1.797136 12.362562 1.838540 6.596130 17.653174 -7.676035 0.000000 0.000000 0.000000 2.627336 0.713984 -0.553828 1.189010 2.565004 -8.042923 0.000000 0.000000 0.000000 -55.628247 5.647690 -51.064188 -179.999800 -74.085040 -179.999786 0.000000 0.000000 0.000000 2.627336 0.713984 -0.553828 2.558641 17.669004 -6.457298 0.000000 0.000000 0.000000 -49.862263 22.973075 67.467782 179.999896 72.193938 -179.999882 0.000000 0.000000 0.000000 
0.474274 94.200134 -1.989662 0.000000 0.000000 0.000000 -4.128411 -39.147014 1.036308 -47.465464 1.386063 22.258109 57.244498 -3.749029 3.165422 -1.443189 -10.308314 -12.811075 0.714357 0.000020 -0.000002 0.000000 0.000000 0.000000 -4.128411 -39.147014 1.036308 -23.879974 -9.128439 -31.327810 57.404386 -7.806226 -4.041860 -21.936693 -10.717552 24.569386 -0.140849 0.000003 -0.000003 0.000000 0.000000 0.000000 -4.128411 -39.147014 1.036308 11.406399 6.750819 -0.251908 2.623759 0.710504 -0.585052 0.000000 0.000000 0.000000 0.000000 0.000000 0.000000 2.642676 0.709864 -0.567276 -1.150176 12.424997 1.861671 7.087477 17.793527 -7.479952 0.000000 0.000000 0.000000 2.642676 0.709864 -0.567276 1.285492 2.474277 -8.273400 0.000000 0.000000 0.000000 -55.503787 5.562865 -51.110633 179.999991 -74.376416 179.999991 0.000000 0.000000 0.000000 2.642676 0.709864 -0.567276 2.570614 17.378455 -6.705994 0.000000 0.000000 0.000000 -50.210216 23.374531 68.783461 -179.999964 72.066788 179.999964 0.000000 0.000000 0.000000 
